<svg width="279" height="52" viewBox="0 0 279 52" fill="none" xmlns="http://www.w3.org/2000/svg">
<path d="M8.064 10.624C9.70667 10.624 11.0933 10.7627 12.224 11.04C13.376 11.3173 14.2933 11.7227 14.976 12.256C15.68 12.768 16.192 13.376 16.512 14.08C16.832 14.784 16.992 15.552 16.992 16.384C16.992 17.728 16.6293 18.8907 15.904 19.872C15.2 20.832 14.2293 21.568 12.992 22.08C11.7547 22.6133 10.3573 22.88 8.8 22.88C7.28533 22.88 5.984 22.6453 4.896 22.176C3.82933 21.728 2.944 21.1093 2.24 20.32C1.536 19.5307 0.992 18.656 0.608 17.696L2.688 16.32C2.90133 16.8107 3.15733 17.3013 3.456 17.792C3.75467 18.2827 4.128 18.7413 4.576 19.168C5.024 19.5733 5.54667 19.904 6.144 20.16C6.76267 20.416 7.456 20.544 8.224 20.544C9.09867 20.544 9.83467 20.3733 10.432 20.032C11.0507 19.712 11.52 19.2427 11.84 18.624C12.16 17.984 12.32 17.2053 12.32 16.288C12.32 15.4347 12.1707 14.688 11.872 14.048C11.5947 13.408 11.104 12.9067 10.4 12.544C9.71733 12.1813 8.768 12 7.552 12H5.6V9.856H7.168C8.192 9.856 9.03467 9.70667 9.696 9.408C10.3787 9.10933 10.8907 8.66133 11.232 8.064C11.5733 7.44533 11.744 6.67733 11.744 5.76C11.744 4.97067 11.6053 4.34133 11.328 3.872C11.072 3.38133 10.7093 3.02933 10.24 2.816C9.77067 2.58133 9.22667 2.464 8.608 2.464C7.648 2.464 6.848 2.66667 6.208 3.072C5.568 3.47733 5.056 3.97867 4.672 4.576C4.69333 4.384 4.72533 4.18133 4.768 3.968C4.81067 3.75467 4.87467 3.56267 4.96 3.392C5.04533 3.2 5.16267 3.04 5.312 2.912C5.46133 2.76267 5.64267 2.67733 5.856 2.656V6.272H1.952V2.944C2.336 2.496 2.85867 2.06933 3.52 1.664C4.20267 1.23733 5.00267 0.895999 5.92 0.639999C6.83733 0.362666 7.85067 0.223999 8.96 0.223999C10.3467 0.223999 11.584 0.426666 12.672 0.831999C13.7813 1.23733 14.656 1.83467 15.296 2.624C15.936 3.392 16.256 4.352 16.256 5.504C16.256 6.69867 15.8613 7.712 15.072 8.544C14.304 9.35467 13.2587 9.984 11.936 10.432C10.6133 10.8587 9.13067 11.072 7.488 11.072L9.056 10.304V11.36L8.064 10.624ZM26.8663 20.352C25.6716 20.352 24.5729 20.1173 23.5703 19.648C22.5889 19.1787 21.7356 18.5067 21.0103 17.632C20.3063 16.736 19.7516 15.6693 19.3463 14.432C18.9623 13.1947 18.7703 11.808 18.7703 10.272C18.7703 8.736 18.9623 7.34933 19.3463 6.112C19.7516 4.87467 20.3063 3.81867 21.0103 2.944C21.7356 2.048 22.5889 1.36533 23.5703 0.896C24.5729 0.426666 25.6716 0.191999 26.8663 0.191999C28.0609 0.191999 29.1489 0.426666 30.1303 0.896C31.1329 1.36533 31.9863 2.048 32.6903 2.944C33.4156 3.81867 33.9703 4.87467 34.3542 6.112C34.7596 7.34933 34.9623 8.736 34.9623 10.272C34.9623 11.808 34.7596 13.1947 34.3542 14.432C33.9703 15.6693 33.4156 16.736 32.6903 17.632C31.9863 18.5067 31.1329 19.1787 30.1303 19.648C29.1489 20.1173 28.0609 20.352 26.8663 20.352ZM26.8663 18.112C27.4209 18.112 27.9009 17.9627 28.3063 17.664C28.7116 17.344 29.0529 16.8747 29.3303 16.256C29.6076 15.616 29.8103 14.8053 29.9383 13.824C30.0876 12.8213 30.1623 11.6373 30.1623 10.272C30.1623 8.90667 30.0876 7.73333 29.9383 6.752C29.8103 5.74933 29.6076 4.928 29.3303 4.288C29.0529 3.648 28.7116 3.17867 28.3063 2.88C27.9009 2.56 27.4209 2.4 26.8663 2.4C26.3116 2.4 25.8316 2.56 25.4263 2.88C25.0209 3.17867 24.6796 3.648 24.4023 4.288C24.1249 4.928 23.9116 5.74933 23.7623 6.752C23.6343 7.73333 23.5703 8.90667 23.5703 10.272C23.5703 11.616 23.6343 12.7893 23.7623 13.792C23.9116 14.7947 24.1249 15.616 24.4023 16.256C24.6796 16.8747 25.0209 17.344 25.4263 17.664C25.8316 17.9627 26.3116 18.112 26.8663 18.112ZM44.7725 20.352C43.5778 20.352 42.4792 20.1173 41.4765 19.648C40.4952 19.1787 39.6418 18.5067 38.9165 17.632C38.2125 16.736 37.6578 15.6693 37.2525 14.432C36.8685 13.1947 36.6765 11.808 36.6765 10.272C36.6765 8.736 36.8685 7.34933 37.2525 6.112C37.6578 4.87467 38.2125 3.81867 38.9165 2.944C39.6418 2.048 40.4952 1.36533 41.4765 0.896C42.4792 0.426666 43.5778 0.191999 44.7725 0.191999C45.9672 0.191999 47.0552 0.426666 48.0365 0.896C49.0392 1.36533 49.8925 2.048 50.5965 2.944C51.3218 3.81867 51.8765 4.87467 52.2605 6.112C52.6658 7.34933 52.8685 8.736 52.8685 10.272C52.8685 11.808 52.6658 13.1947 52.2605 14.432C51.8765 15.6693 51.3218 16.736 50.5965 17.632C49.8925 18.5067 49.0392 19.1787 48.0365 19.648C47.0552 20.1173 45.9672 20.352 44.7725 20.352ZM44.7725 18.112C45.3272 18.112 45.8072 17.9627 46.2125 17.664C46.6178 17.344 46.9592 16.8747 47.2365 16.256C47.5138 15.616 47.7165 14.8053 47.8445 13.824C47.9938 12.8213 48.0685 11.6373 48.0685 10.272C48.0685 8.90667 47.9938 7.73333 47.8445 6.752C47.7165 5.74933 47.5138 4.928 47.2365 4.288C46.9592 3.648 46.6178 3.17867 46.2125 2.88C45.8072 2.56 45.3272 2.4 44.7725 2.4C44.2178 2.4 43.7378 2.56 43.3325 2.88C42.9272 3.17867 42.5858 3.648 42.3085 4.288C42.0312 4.928 41.8178 5.74933 41.6685 6.752C41.5405 7.73333 41.4765 8.90667 41.4765 10.272C41.4765 11.616 41.5405 12.7893 41.6685 13.792C41.8178 14.7947 42.0312 15.616 42.3085 16.256C42.5858 16.8747 42.9272 17.344 43.3325 17.664C43.7378 17.9627 44.2178 18.112 44.7725 18.112ZM61.0788 2.08H64.2148V16.096H61.0788V2.08ZM69.5268 7.648V10.528H55.8307V7.648H69.5268Z" fill="#2E073F"/>
<path d="M9.1333 45.2715C9.08447 45.6133 8.98926 45.916 8.84766 46.1797C8.70117 46.4482 8.52051 46.6802 8.30566 46.8755C8.09082 47.0708 7.85156 47.2368 7.58789 47.3735C7.30469 47.5103 7.02637 47.6177 6.75293 47.6958C6.45996 47.7788 6.16455 47.8374 5.8667 47.8716C5.56885 47.9106 5.2832 47.9302 5.00977 47.9302C4.63379 47.9302 4.2627 47.8887 3.89648 47.8057C3.53027 47.7275 3.17139 47.6177 2.81982 47.4761C2.46338 47.3296 2.11182 47.1562 1.76514 46.9561C1.42334 46.7559 1.08398 46.5361 0.74707 46.2969L1.81641 45.0371C2.19727 45.374 2.57324 45.6401 2.94434 45.8354C3.32031 46.0259 3.65723 46.1699 3.95508 46.2676C4.30664 46.3896 4.63867 46.4678 4.95117 46.502C5.30273 46.5215 5.62988 46.4946 5.93262 46.4214C6.24023 46.3433 6.50635 46.2358 6.73096 46.0991C7.19971 45.811 7.46094 45.4424 7.51465 44.9932C7.5293 44.8125 7.49756 44.6465 7.41943 44.4951C7.26807 44.2021 6.9751 43.9556 6.54053 43.7554C6.43799 43.7065 6.33057 43.6626 6.21826 43.6235C6.11084 43.5796 6.00098 43.5381 5.88867 43.499C5.6543 43.4258 5.4126 43.3623 5.16357 43.3086C4.91943 43.25 4.68262 43.2012 4.45312 43.1621C4.1748 43.1084 3.88184 43.0425 3.57422 42.9644C3.2666 42.8813 2.96387 42.7764 2.66602 42.6494C2.36816 42.5176 2.0874 42.354 1.82373 42.1587C1.55518 41.9585 1.32812 41.7217 1.14258 41.4482C0.947266 41.1748 0.79834 40.855 0.695801 40.4888C0.598145 40.1226 0.566406 39.7026 0.600586 39.229C0.629883 38.8286 0.712891 38.4746 0.849609 38.167C1.1084 37.5469 1.52588 37.0513 2.10205 36.6802C2.37549 36.5044 2.66846 36.3579 2.98096 36.2407C3.29346 36.1235 3.61572 36.0405 3.94775 35.9917C4.28467 35.938 4.61914 35.9136 4.95117 35.9185C5.40039 35.938 5.86182 36.0088 6.33545 36.1309C6.75537 36.2383 7.18994 36.397 7.63916 36.6069C8.09326 36.8169 8.50586 37.1001 8.87695 37.4565L8.05664 38.7529C7.76855 38.4258 7.43652 38.1646 7.06055 37.9692C6.68457 37.769 6.33057 37.6226 5.99854 37.5298C5.62744 37.4272 5.25879 37.3687 4.89258 37.354C4.44824 37.354 4.05273 37.4199 3.70605 37.5518C3.35938 37.6836 3.06885 37.8569 2.83447 38.0718C2.59521 38.2817 2.41211 38.5186 2.28516 38.7822C2.16309 39.0459 2.10205 39.3047 2.10205 39.5586C2.10205 39.8076 2.17529 40.0493 2.32178 40.2837C2.47314 40.5181 2.68066 40.7305 2.94434 40.9209C3.50098 41.3213 4.19434 41.5776 5.02441 41.6899C5.20508 41.7095 5.3833 41.7363 5.55908 41.7705C5.73486 41.7998 5.91309 41.8364 6.09375 41.8804C6.44531 41.9683 6.78223 42.0806 7.10449 42.2173C7.43164 42.354 7.72949 42.5176 7.99805 42.708C8.27148 42.9082 8.49854 43.1304 8.6792 43.3745C8.86475 43.6284 8.99902 43.9141 9.08203 44.2314C9.16992 44.5439 9.18701 44.8906 9.1333 45.2715ZM12.7295 37.2368C12.7295 37.52 12.6245 37.7642 12.4146 37.9692C12.2095 38.1694 11.9629 38.2695 11.6748 38.2695C11.3916 38.2695 11.1475 38.1694 10.9424 37.9692C10.7422 37.7642 10.6421 37.52 10.6421 37.2368C10.6421 36.9487 10.7422 36.7021 10.9424 36.4971C11.1475 36.2871 11.3916 36.1821 11.6748 36.1821C11.9629 36.1821 12.2095 36.2871 12.4146 36.4971C12.6245 36.7021 12.7295 36.9487 12.7295 37.2368ZM10.8691 39.8735L12.3853 39.8149L12.312 43.3306C12.2876 44.2974 12.2729 45.0566 12.2681 45.6084C12.2534 46.2822 12.2461 46.812 12.2461 47.1978H10.7446C10.7495 46.9341 10.7544 46.646 10.7593 46.3335C10.769 46.0161 10.7764 45.6768 10.7812 45.3154C10.791 44.6855 10.8057 43.9214 10.8252 43.0229L10.8691 39.8735ZM21.2329 45.396C21.2329 45.8599 21.1401 46.2505 20.9546 46.5679C20.769 46.8804 20.5176 47.1367 20.2002 47.3369C19.8877 47.5322 19.5264 47.6763 19.1162 47.769C18.7061 47.8667 18.2812 47.9253 17.8418 47.9448C17.3828 47.9351 16.9287 47.8887 16.4795 47.8057C16.084 47.7373 15.647 47.6104 15.1685 47.4248C14.6899 47.2393 14.2603 46.9976 13.8794 46.6997L14.5898 45.5864C14.8584 45.728 15.1318 45.8647 15.4102 45.9966C15.6934 46.1284 15.9814 46.2432 16.2744 46.3408C16.5674 46.4434 16.8677 46.5239 17.1753 46.5825C17.4829 46.6411 17.8003 46.6704 18.1274 46.6704C18.5913 46.6704 18.9478 46.5947 19.1968 46.4434C19.4458 46.2871 19.6094 46.0967 19.6875 45.8721C19.7754 45.5791 19.6899 45.2983 19.4312 45.0298C19.3823 44.981 19.3262 44.937 19.2627 44.8979C19.1992 44.854 19.1284 44.8125 19.0503 44.7734C18.894 44.7002 18.7036 44.6392 18.479 44.5903C18.2544 44.5415 17.9883 44.5098 17.6807 44.4951C17.2412 44.4756 16.8164 44.4316 16.4062 44.3633C16.001 44.29 15.6396 44.1777 15.3223 44.0264C15 43.875 14.7339 43.6772 14.5239 43.4331C14.3188 43.1841 14.1943 42.874 14.1504 42.5029C14.1162 42.166 14.1406 41.8438 14.2236 41.5361C14.3799 40.9746 14.7021 40.5132 15.1904 40.1519C15.3125 40.0688 15.437 39.9907 15.564 39.9175C15.6958 39.8442 15.8325 39.7783 15.9741 39.7197C16.2573 39.6074 16.5552 39.5244 16.8677 39.4707C17.1851 39.4121 17.5049 39.3828 17.8271 39.3828C18.0176 39.3828 18.2422 39.3926 18.501 39.4121C18.7598 39.4316 19.0308 39.4707 19.314 39.5293C19.5972 39.5879 19.8828 39.6733 20.1709 39.7856C20.459 39.8931 20.7275 40.0371 20.9766 40.2178L20.4712 41.5581C20.1489 41.3872 19.8413 41.2554 19.5483 41.1626C19.2603 41.0649 19.0039 40.9893 18.7793 40.9355C18.6475 40.9062 18.5181 40.8818 18.3911 40.8623C18.269 40.8428 18.1519 40.8281 18.0396 40.8184C17.2729 40.7744 16.6748 40.855 16.2451 41.0601C15.8203 41.2651 15.6079 41.5752 15.6079 41.9902C15.6079 42.2832 15.6885 42.498 15.8496 42.6348C16.0107 42.7666 16.2305 42.8618 16.5088 42.9204C16.6699 42.9546 16.875 42.9839 17.124 43.0083C17.3779 43.0278 17.6416 43.0498 17.915 43.0742C18.1934 43.0986 18.4448 43.1279 18.6694 43.1621C19.1479 43.2354 19.5508 43.3452 19.8779 43.4917C20.2051 43.6382 20.4688 43.8091 20.6689 44.0044C20.8691 44.1997 21.0132 44.417 21.1011 44.6562C21.189 44.8906 21.2329 45.1372 21.2329 45.396ZM29.9414 45.8281L30.9302 39.5439L32.5562 39.6025L31.0986 47.2563L28.9233 47.3149L27.6343 41.9316L25.8618 47.0586L23.6719 47.2271L22.251 39.6318L23.7598 39.5146L24.873 45.667L27.0483 39.5146L28.4546 39.6025L29.9414 45.8281ZM41.2207 47.7031L39.7852 47.4614L39.8877 46.4287C39.292 46.8096 38.7061 47.0854 38.1299 47.2563C37.5586 47.4272 37.0239 47.5127 36.5259 47.5127C36.1743 47.5127 35.8325 47.4663 35.5005 47.3735C35.1733 47.2856 34.8853 47.1465 34.6362 46.9561C34.3823 46.7705 34.1772 46.5337 34.021 46.2456C33.8696 45.9526 33.7939 45.6084 33.7939 45.2129C33.7939 44.8174 33.8525 44.4634 33.9697 44.1509C34.0869 43.8384 34.248 43.5625 34.4531 43.3232C34.6582 43.084 34.8999 42.8789 35.1782 42.708C35.4565 42.5371 35.7568 42.3979 36.0791 42.2905C36.3965 42.1831 36.731 42.105 37.0825 42.0562C37.4341 42.0024 37.7832 41.9756 38.1299 41.9756C38.4521 41.9756 38.7524 41.9878 39.0308 42.0122C39.3091 42.0366 39.5557 42.0684 39.7705 42.1074C39.6826 41.7607 39.563 41.436 39.4116 41.1333C39.2651 40.8306 39.0698 40.5864 38.8257 40.4009C38.5864 40.2104 38.2764 40.1152 37.8955 40.1152C37.7051 40.1152 37.4878 40.1445 37.2437 40.2031C36.9995 40.2568 36.731 40.3569 36.438 40.5034C36.145 40.6499 35.8252 40.8525 35.4785 41.1113C35.1318 41.3652 34.7607 41.6924 34.3652 42.0928L33.479 41.0161C33.9478 40.5767 34.397 40.2178 34.8267 39.9395C35.2563 39.6611 35.6616 39.4414 36.0425 39.2803C36.4185 39.124 36.7676 39.0166 37.0898 38.958C37.417 38.8994 37.71 38.8701 37.9688 38.8701C38.4229 38.8701 38.8232 38.9458 39.1699 39.0972C39.5215 39.2485 39.8315 39.4585 40.1001 39.7271C40.3687 39.9907 40.5933 40.3032 40.7739 40.6646C40.9497 41.0112 41.0986 41.397 41.2207 41.8218C41.3379 42.2368 41.4209 42.6665 41.4697 43.1108C41.5234 43.5552 41.5503 43.9971 41.5503 44.4365C41.5503 44.9053 41.5234 45.4082 41.4697 45.9453C41.416 46.4824 41.333 47.0684 41.2207 47.7031ZM39.9902 44.7954C40 44.5513 40.0073 44.3096 40.0122 44.0703C40.0171 43.8311 40.0049 43.582 39.9756 43.3232C39.7363 43.25 39.4849 43.1914 39.2212 43.1475C38.9575 43.1035 38.6938 43.0815 38.4302 43.0815C37.9907 43.0815 37.5635 43.1328 37.1484 43.2354C36.7383 43.3379 36.3843 43.4868 36.0864 43.6821C35.7886 43.8774 35.564 44.1167 35.4126 44.3999C35.2661 44.6831 35.2368 45.0054 35.3247 45.3667C35.3931 45.6597 35.5249 45.8647 35.7202 45.9819C35.9204 46.0991 36.1597 46.1577 36.438 46.1577C36.7993 46.1577 37.2046 46.082 37.6538 45.9307C38.103 45.7744 38.5352 45.5889 38.9502 45.374C39.3701 45.1592 39.7168 44.9663 39.9902 44.7954ZM58.6816 47.1685L56.9531 47.4175C56.665 46.4214 56.3599 45.4326 56.0376 44.4512L50.1416 44.7075C49.79 45.6304 49.4556 46.5654 49.1382 47.5127L47.4756 47.2856C48.1641 45.4399 48.9258 43.6235 49.7607 41.8364C50.6006 40.0493 51.4941 38.2793 52.4414 36.5264L54.4922 36.563C55.332 38.2573 56.0986 39.9858 56.792 41.7485C57.4854 43.5063 58.1152 45.313 58.6816 47.1685ZM53.313 37.7422C52.8198 38.6797 52.3535 39.6221 51.9141 40.5693C51.4746 41.5117 51.0547 42.4663 50.6543 43.4331L55.6055 43.2207C55.2734 42.2832 54.917 41.3628 54.5361 40.4595C54.1553 39.5562 53.7476 38.6504 53.313 37.7422ZM60.0513 47.1685L60.4248 35.8672L62.0508 35.8965L61.7798 42.8472L65.603 39.002L66.731 39.9028L63.999 42.6055L67.1484 46.6997L65.8594 47.6445L62.915 43.6821L61.6992 44.8687L61.626 47.0732L60.0513 47.1685ZM70.1001 39.7563L70.1587 36.5483L71.6162 36.4531L71.5649 39.7271L74.4067 39.6318L74.2969 41.0015L71.5503 41.0747L71.4917 47.4614L69.9463 47.498L70.0708 41.1187L67.5366 41.1772L67.5659 39.8296L70.1001 39.7563ZM77.5342 37.2368C77.5342 37.52 77.4292 37.7642 77.2192 37.9692C77.0142 38.1694 76.7676 38.2695 76.4795 38.2695C76.1963 38.2695 75.9521 38.1694 75.7471 37.9692C75.5469 37.7642 75.4468 37.52 75.4468 37.2368C75.4468 36.9487 75.5469 36.7021 75.7471 36.4971C75.9521 36.2871 76.1963 36.1821 76.4795 36.1821C76.7676 36.1821 77.0142 36.2871 77.2192 36.4971C77.4292 36.7021 77.5342 36.9487 77.5342 37.2368ZM75.6738 39.8735L77.1899 39.8149L77.1167 43.3306C77.0923 44.2974 77.0776 45.0566 77.0728 45.6084C77.0581 46.2822 77.0508 46.812 77.0508 47.1978H75.5493C75.5542 46.9341 75.5591 46.646 75.564 46.3335C75.5737 46.0161 75.5811 45.6768 75.5859 45.3154C75.5957 44.6855 75.6104 43.9214 75.6299 43.0229L75.6738 39.8735ZM78.5522 40.9575V39.5586L80.2954 39.5732C80.3491 39.0605 80.4517 38.5674 80.603 38.0938C80.7593 37.6152 80.979 37.1929 81.2622 36.8267C81.5405 36.4604 81.8921 36.1675 82.3169 35.9478C82.7417 35.728 83.252 35.6182 83.8477 35.6182C84.1699 35.6182 84.5093 35.6743 84.8657 35.7866C85.2271 35.894 85.5835 36.1016 85.9351 36.4092L85.21 37.6396C84.9463 37.4541 84.6899 37.3247 84.4409 37.2515C84.1919 37.1733 83.9697 37.1245 83.7744 37.105C83.5449 37.0806 83.3301 37.0879 83.1299 37.127C82.9346 37.1758 82.7612 37.2539 82.6099 37.3613C82.4585 37.4639 82.3267 37.6104 82.2144 37.8008C81.9995 38.1621 81.8481 38.7578 81.7603 39.5879L84.8657 39.6025L84.7046 41.0454L81.6724 41.0015V41.646C81.6675 41.9683 81.665 42.2954 81.665 42.6274C81.665 42.9546 81.665 43.2866 81.665 43.6235L81.6577 45.5352C81.6577 45.8721 81.6553 46.2139 81.6504 46.5605C81.6504 46.9023 81.6479 47.2344 81.6431 47.5566L80.127 47.5859C80.1367 47.0537 80.144 46.5605 80.1489 46.1064C80.1538 45.6475 80.1587 45.2275 80.1636 44.8467C80.1685 44.4658 80.1733 44.1191 80.1782 43.8066C80.1831 43.4893 80.188 43.2036 80.1929 42.9497L80.2148 41.4922V40.9868L78.5522 40.9575ZM97.3828 40.1445L97.4414 36.3945L98.8184 36.4971L98.7891 47.3003H97.2876L97.3022 46.3701C97.0288 46.624 96.7334 46.8267 96.416 46.978C96.1035 47.1294 95.8057 47.2417 95.5225 47.3149C95.2148 47.3931 94.9097 47.437 94.6069 47.4468C93.4546 47.4468 92.5024 47.0635 91.7505 46.2969C91.3892 45.9307 91.1035 45.4839 90.8936 44.9565C90.6885 44.4292 90.5859 43.8359 90.5859 43.1768C90.5859 42.5127 90.7007 41.9219 90.9302 41.4043C91.1646 40.8818 91.4673 40.4424 91.8384 40.0859C92.2144 39.7295 92.6367 39.4585 93.1055 39.2729C93.5742 39.0825 94.0479 38.9873 94.5264 38.9873C94.8535 38.9922 95.1855 39.0361 95.5225 39.1191C95.8105 39.1875 96.1206 39.3022 96.4526 39.4634C96.7847 39.6196 97.0947 39.8467 97.3828 40.1445ZM94.6069 46.0991C95.2222 46.0991 95.7837 45.9111 96.2915 45.5352C96.7993 45.1641 97.146 44.6782 97.3315 44.0776L97.3462 42.5176C97.2583 42.2051 97.1216 41.9194 96.936 41.6606C96.7505 41.397 96.5332 41.1724 96.2842 40.9868C95.7617 40.5962 95.188 40.4009 94.563 40.4009C94.2017 40.4009 93.8696 40.4766 93.5669 40.6279C93.2642 40.7744 93.0029 40.9771 92.7832 41.2358C92.5635 41.4946 92.3926 41.7998 92.2705 42.1514C92.1484 42.5029 92.0874 42.8838 92.0874 43.2939C92.0874 43.7041 92.1484 44.0801 92.2705 44.4219C92.3975 44.7637 92.5732 45.0591 92.7979 45.3081C93.0176 45.5571 93.2812 45.7524 93.5889 45.894C93.9014 46.0308 94.2407 46.0991 94.6069 46.0991ZM104.509 46.3262C105.051 46.3262 105.549 46.165 106.003 45.8428C106.458 45.5156 106.753 45.0615 106.89 44.4805L108.303 44.7661C108.167 45.2104 107.974 45.6133 107.725 45.9746C107.476 46.3359 107.185 46.646 106.853 46.9048C106.521 47.1636 106.155 47.3638 105.754 47.5054C105.359 47.647 104.944 47.7178 104.509 47.7178C103.865 47.7178 103.293 47.6201 102.795 47.4248C102.297 47.2295 101.877 46.9536 101.536 46.5972C100.837 45.8696 100.488 44.8784 100.488 43.6235C100.488 43.0132 100.591 42.4443 100.796 41.917C101.006 41.3848 101.292 40.9233 101.653 40.5327C102.014 40.1421 102.439 39.8345 102.927 39.6099C103.416 39.3853 103.943 39.2729 104.509 39.2729C105.017 39.2729 105.496 39.373 105.945 39.5732C106.394 39.7686 106.792 40.0396 107.139 40.3862C107.485 40.7378 107.771 41.1504 107.996 41.624C108.22 42.0977 108.362 42.6104 108.42 43.1621L102.078 44.1069C102.112 44.4536 102.197 44.7661 102.334 45.0444C102.476 45.3179 102.651 45.5498 102.861 45.7402C103.296 46.1309 103.845 46.3262 104.509 46.3262ZM102.122 42.752L106.531 42.2173L106.487 42.0781C106.301 41.5947 106.045 41.2163 105.718 40.9429C105.396 40.6694 104.993 40.5327 104.509 40.5327C104.304 40.5327 104.08 40.5693 103.835 40.6426C103.591 40.7109 103.354 40.8306 103.125 41.0015C102.896 41.1724 102.688 41.4019 102.502 41.6899C102.322 41.9731 102.195 42.3271 102.122 42.752ZM111.672 47.3442L110.098 47.542L109.951 43.4331C109.941 43.1548 109.932 42.8569 109.922 42.5396C109.912 42.2173 109.902 41.9146 109.893 41.6313C109.883 41.3433 109.875 41.1162 109.871 40.9502C109.851 40.2617 109.836 39.7441 109.827 39.3975L111.497 39.3682L111.526 41.4775C111.687 41.1992 111.87 40.938 112.075 40.6938C112.28 40.4448 112.502 40.2251 112.742 40.0347C112.981 39.8442 113.235 39.6904 113.503 39.5732C113.777 39.4561 114.062 39.3877 114.36 39.3682C114.736 39.3438 115.061 39.3755 115.334 39.4634C115.608 39.5513 115.842 39.6733 116.038 39.8296C116.233 39.981 116.394 40.1641 116.521 40.3789C116.653 40.5986 116.753 40.8184 116.821 41.0381C116.895 41.2627 116.946 41.4897 116.975 41.7192C117.009 41.9438 117.031 42.1489 117.041 42.3345C117.07 43.1743 117.078 44.019 117.063 44.8687C117.048 45.7183 117.031 46.5996 117.012 47.5127L115.51 47.4614C115.549 46.6753 115.583 45.8892 115.613 45.103C115.647 44.3169 115.645 43.5234 115.605 42.7227C115.605 42.5518 115.586 42.3564 115.547 42.1367C115.508 41.9121 115.437 41.6899 115.334 41.4702C115.261 41.3188 115.166 41.1846 115.049 41.0674C114.932 40.9551 114.788 40.8696 114.617 40.811C114.451 40.7524 114.255 40.7402 114.031 40.7744C113.645 40.833 113.254 41.1138 112.859 41.6167C112.468 42.105 112.039 42.8447 111.57 43.8359L111.621 45.7109C111.626 45.9453 111.631 46.1504 111.636 46.3262C111.641 46.502 111.646 46.6509 111.65 46.7729C111.66 47.0562 111.667 47.2466 111.672 47.3442ZM125.464 40.2983L125.479 38.8408L126.914 38.8848L126.87 47.3003C126.865 47.4565 126.853 47.6152 126.833 47.7764C126.814 47.9375 126.785 48.0962 126.746 48.2524C126.589 48.8921 126.284 49.4756 125.83 50.0029C125.601 50.2617 125.339 50.4937 125.046 50.6987C124.749 50.8989 124.417 51.0625 124.05 51.1895C123.684 51.3213 123.284 51.4043 122.849 51.4385C122.273 51.458 121.716 51.397 121.179 51.2554C120.701 51.1284 120.237 50.9062 119.788 50.5889C119.338 50.2715 119.004 49.8296 118.784 49.2632L120.198 48.6479C120.369 49.0337 120.61 49.3315 120.923 49.5415C121.24 49.7563 121.562 49.8955 121.89 49.959C122.246 50.0371 122.622 50.0518 123.018 50.0029C123.188 49.9688 123.347 49.9248 123.494 49.8711C123.645 49.8174 123.784 49.7563 123.911 49.688C124.16 49.5464 124.373 49.3877 124.548 49.2119C124.729 49.041 124.873 48.8604 124.98 48.6699C125.034 48.5723 125.081 48.4771 125.12 48.3843C125.164 48.2915 125.203 48.2012 125.237 48.1133C125.3 47.9375 125.342 47.7764 125.361 47.6299C125.386 47.4883 125.398 47.3784 125.398 47.3003V46.3408C125.105 46.6191 124.8 46.834 124.482 46.9854C124.17 47.1318 123.879 47.2393 123.611 47.3076C123.455 47.3467 123.298 47.3784 123.142 47.4028C122.991 47.4272 122.839 47.4419 122.688 47.4468C121.536 47.4468 120.583 47.0635 119.832 46.2969C119.47 45.9307 119.185 45.4839 118.975 44.9565C118.77 44.4292 118.667 43.8359 118.667 43.1768C118.667 42.5127 118.782 41.9219 119.011 41.4043C119.246 40.8818 119.548 40.4424 119.919 40.0859C120.295 39.7295 120.718 39.4585 121.187 39.2729C121.655 39.0825 122.129 38.9873 122.607 38.9873C122.939 39.0264 123.274 39.0996 123.611 39.207C123.899 39.2998 124.209 39.4316 124.541 39.6025C124.873 39.7734 125.181 40.0054 125.464 40.2983ZM122.688 46.0405C123.342 46.0405 123.931 45.8257 124.453 45.396C124.697 45.1958 124.905 44.9565 125.076 44.6782C125.247 44.395 125.364 44.085 125.427 43.748V42.7886C125.374 42.4419 125.259 42.127 125.083 41.8438C124.907 41.5557 124.692 41.3091 124.438 41.104C123.911 40.6743 123.313 40.4595 122.644 40.4595C122.292 40.4595 121.968 40.5327 121.67 40.6792C121.377 40.8208 121.123 41.0186 120.908 41.2725C120.698 41.5264 120.532 41.8267 120.41 42.1733C120.288 42.52 120.227 42.8936 120.227 43.2939C120.227 43.6943 120.288 44.063 120.41 44.3999C120.532 44.7319 120.703 45.02 120.923 45.2642C121.138 45.5034 121.394 45.6938 121.692 45.8354C121.995 45.9722 122.327 46.0405 122.688 46.0405ZM136.201 47.7031L134.766 47.4614L134.868 46.4287C134.272 46.8096 133.687 47.0854 133.11 47.2563C132.539 47.4272 132.004 47.5127 131.506 47.5127C131.155 47.5127 130.813 47.4663 130.481 47.3735C130.154 47.2856 129.866 47.1465 129.617 46.9561C129.363 46.7705 129.158 46.5337 129.001 46.2456C128.85 45.9526 128.774 45.6084 128.774 45.2129C128.774 44.8174 128.833 44.4634 128.95 44.1509C129.067 43.8384 129.229 43.5625 129.434 43.3232C129.639 43.084 129.88 42.8789 130.159 42.708C130.437 42.5371 130.737 42.3979 131.06 42.2905C131.377 42.1831 131.711 42.105 132.063 42.0562C132.415 42.0024 132.764 41.9756 133.11 41.9756C133.433 41.9756 133.733 41.9878 134.011 42.0122C134.29 42.0366 134.536 42.0684 134.751 42.1074C134.663 41.7607 134.543 41.436 134.392 41.1333C134.246 40.8306 134.05 40.5864 133.806 40.4009C133.567 40.2104 133.257 40.1152 132.876 40.1152C132.686 40.1152 132.468 40.1445 132.224 40.2031C131.98 40.2568 131.711 40.3569 131.418 40.5034C131.125 40.6499 130.806 40.8525 130.459 41.1113C130.112 41.3652 129.741 41.6924 129.346 42.0928L128.459 41.0161C128.928 40.5767 129.377 40.2178 129.807 39.9395C130.237 39.6611 130.642 39.4414 131.023 39.2803C131.399 39.124 131.748 39.0166 132.07 38.958C132.397 38.8994 132.69 38.8701 132.949 38.8701C133.403 38.8701 133.804 38.9458 134.15 39.0972C134.502 39.2485 134.812 39.4585 135.081 39.7271C135.349 39.9907 135.574 40.3032 135.754 40.6646C135.93 41.0112 136.079 41.397 136.201 41.8218C136.318 42.2368 136.401 42.6665 136.45 43.1108C136.504 43.5552 136.531 43.9971 136.531 44.4365C136.531 44.9053 136.504 45.4082 136.45 45.9453C136.396 46.4824 136.313 47.0684 136.201 47.7031ZM134.971 44.7954C134.98 44.5513 134.988 44.3096 134.993 44.0703C134.998 43.8311 134.985 43.582 134.956 43.3232C134.717 43.25 134.465 43.1914 134.202 43.1475C133.938 43.1035 133.674 43.0815 133.411 43.0815C132.971 43.0815 132.544 43.1328 132.129 43.2354C131.719 43.3379 131.365 43.4868 131.067 43.6821C130.769 43.8774 130.544 44.1167 130.393 44.3999C130.247 44.6831 130.217 45.0054 130.305 45.3667C130.374 45.6597 130.505 45.8647 130.701 45.9819C130.901 46.0991 131.14 46.1577 131.418 46.1577C131.78 46.1577 132.185 46.082 132.634 45.9307C133.083 45.7744 133.516 45.5889 133.931 45.374C134.351 45.1592 134.697 44.9663 134.971 44.7954ZM140.208 47.3442L138.633 47.542L138.486 43.4331C138.477 43.1548 138.467 42.8569 138.457 42.5396C138.447 42.2173 138.438 41.9146 138.428 41.6313C138.418 41.3433 138.411 41.1162 138.406 40.9502C138.386 40.2617 138.372 39.7441 138.362 39.3975L140.032 39.3682L140.061 41.4775C140.222 41.1992 140.405 40.938 140.61 40.6938C140.815 40.4448 141.038 40.2251 141.277 40.0347C141.516 39.8442 141.77 39.6904 142.039 39.5732C142.312 39.4561 142.598 39.3877 142.896 39.3682C143.271 39.3438 143.596 39.3755 143.87 39.4634C144.143 39.5513 144.377 39.6733 144.573 39.8296C144.768 39.981 144.929 40.1641 145.056 40.3789C145.188 40.5986 145.288 40.8184 145.356 41.0381C145.43 41.2627 145.481 41.4897 145.51 41.7192C145.544 41.9438 145.566 42.1489 145.576 42.3345C145.605 43.1743 145.613 44.019 145.598 44.8687C145.583 45.7183 145.566 46.5996 145.547 47.5127L144.045 47.4614C144.084 46.6753 144.119 45.8892 144.148 45.103C144.182 44.3169 144.18 43.5234 144.141 42.7227C144.141 42.5518 144.121 42.3564 144.082 42.1367C144.043 41.9121 143.972 41.6899 143.87 41.4702C143.796 41.3188 143.701 41.1846 143.584 41.0674C143.467 40.9551 143.323 40.8696 143.152 40.811C142.986 40.7524 142.791 40.7402 142.566 40.7744C142.18 40.833 141.79 41.1138 141.394 41.6167C141.003 42.105 140.574 42.8447 140.105 43.8359L140.156 45.7109C140.161 45.9453 140.166 46.1504 140.171 46.3262C140.176 46.502 140.181 46.6509 140.186 46.7729C140.195 47.0562 140.203 47.2466 140.208 47.3442ZM162.29 44.1362C162.305 44.6587 162.222 45.103 162.041 45.4692C161.86 45.8403 161.614 46.1528 161.301 46.4067C160.994 46.6558 160.635 46.8584 160.225 47.0146C159.81 47.166 159.377 47.2832 158.928 47.3662C158.474 47.4443 158.018 47.4956 157.559 47.52C157.1 47.5444 156.67 47.5566 156.27 47.5566C155.864 47.5566 155.413 47.5444 154.915 47.52C154.421 47.5005 153.879 47.4663 153.289 47.4175L152.974 36.7534C153.481 36.6606 153.975 36.5923 154.453 36.5483C154.932 36.4995 155.359 36.4653 155.735 36.4458C156.174 36.4214 156.589 36.4141 156.98 36.4238C157.356 36.4287 157.729 36.4507 158.101 36.4897C158.477 36.5239 158.835 36.5825 159.177 36.6655C159.524 36.7437 159.846 36.8535 160.144 36.9951C160.437 37.1318 160.696 37.3125 160.92 37.5371C161.14 37.7568 161.313 38.0229 161.44 38.3354C161.567 38.6431 161.631 39.0068 161.631 39.4268C161.631 39.9736 161.531 40.4424 161.331 40.833C161.13 41.2188 160.869 41.5386 160.547 41.7925C160.938 41.9243 161.25 42.1123 161.484 42.3564C161.724 42.5957 161.909 42.8643 162.041 43.1621C162.168 43.4551 162.251 43.7798 162.29 44.1362ZM157.009 37.7568C156.785 37.7568 156.536 37.7642 156.262 37.7788C156.033 37.7886 155.769 37.8081 155.471 37.8374C155.178 37.8667 154.866 37.9058 154.534 37.9546L154.651 41.6899C155.071 41.6802 155.452 41.668 155.793 41.6533C156.14 41.6338 156.438 41.6167 156.687 41.6021C156.833 41.5923 156.973 41.5825 157.104 41.5728C157.236 41.563 157.358 41.5532 157.471 41.5435C157.832 41.5239 158.176 41.4653 158.503 41.3677C158.835 41.2651 159.124 41.126 159.368 40.9502C159.612 40.7744 159.8 40.5596 159.932 40.3057C160.068 40.0518 160.12 39.7588 160.085 39.4268C160.056 39.1777 159.99 38.9629 159.888 38.7822C159.683 38.4258 159.37 38.1646 158.95 37.9985C158.76 37.9253 158.55 37.8643 158.32 37.8154C158.101 37.7764 157.878 37.7544 157.654 37.7495C157.429 37.7397 157.214 37.7422 157.009 37.7568ZM158.401 42.7227C158.352 42.7275 158.262 42.7349 158.13 42.7446C157.998 42.7544 157.871 42.7642 157.749 42.7739C157.627 42.7837 157.554 42.7886 157.529 42.7886L156.665 42.8545C156.401 42.874 156.099 42.896 155.757 42.9204C155.415 42.9399 155.061 42.9595 154.695 42.979L154.805 46.2236C154.873 46.2285 154.941 46.2334 155.01 46.2383C155.078 46.2383 155.144 46.2383 155.208 46.2383H155.596C155.708 46.2383 155.837 46.2383 155.984 46.2383C156.13 46.2383 156.292 46.2358 156.467 46.231C156.814 46.231 157.178 46.2139 157.559 46.1797C157.944 46.1455 158.33 46.0894 158.716 46.0112C159.097 45.9282 159.441 45.811 159.749 45.6597C160.051 45.5034 160.293 45.3057 160.474 45.0664C160.659 44.8223 160.745 44.5171 160.73 44.1509C160.686 43.8872 160.574 43.6504 160.393 43.4404C160.203 43.2256 159.944 43.0522 159.617 42.9204C159.294 42.7886 158.889 42.7227 158.401 42.7227ZM167.439 46.3262C167.981 46.3262 168.479 46.165 168.933 45.8428C169.387 45.5156 169.683 45.0615 169.819 44.4805L171.233 44.7661C171.096 45.2104 170.903 45.6133 170.654 45.9746C170.405 46.3359 170.115 46.646 169.783 46.9048C169.451 47.1636 169.084 47.3638 168.684 47.5054C168.289 47.647 167.874 47.7178 167.439 47.7178C166.794 47.7178 166.223 47.6201 165.725 47.4248C165.227 47.2295 164.807 46.9536 164.465 46.5972C163.767 45.8696 163.418 44.8784 163.418 43.6235C163.418 43.0132 163.521 42.4443 163.726 41.917C163.936 41.3848 164.221 40.9233 164.583 40.5327C164.944 40.1421 165.369 39.8345 165.857 39.6099C166.345 39.3853 166.873 39.2729 167.439 39.2729C167.947 39.2729 168.425 39.373 168.875 39.5732C169.324 39.7686 169.722 40.0396 170.068 40.3862C170.415 40.7378 170.701 41.1504 170.925 41.624C171.15 42.0977 171.292 42.6104 171.35 43.1621L165.007 44.1069C165.042 44.4536 165.127 44.7661 165.264 45.0444C165.405 45.3179 165.581 45.5498 165.791 45.7402C166.226 46.1309 166.775 46.3262 167.439 46.3262ZM165.051 42.752L169.46 42.2173L169.417 42.0781C169.231 41.5947 168.975 41.2163 168.647 40.9429C168.325 40.6694 167.922 40.5327 167.439 40.5327C167.234 40.5327 167.009 40.5693 166.765 40.6426C166.521 40.7109 166.284 40.8306 166.055 41.0015C165.825 41.1724 165.618 41.4019 165.432 41.6899C165.251 41.9731 165.125 42.3271 165.051 42.752ZM179.78 42.3345L178.337 42.8765C178.333 42.4614 178.274 42.1245 178.162 41.8657C178.054 41.6069 177.91 41.4116 177.729 41.2798C177.559 41.1528 177.366 41.0942 177.151 41.104C177.009 41.1284 176.865 41.1846 176.719 41.2725C176.567 41.3652 176.409 41.4873 176.243 41.6387C176.082 41.79 175.92 41.9585 175.759 42.144C175.676 42.2368 175.596 42.332 175.518 42.4297C175.439 42.5273 175.361 42.625 175.283 42.7227C175.132 42.918 174.988 43.1157 174.851 43.3159C174.714 43.5112 174.592 43.6895 174.485 43.8506C174.49 44.0508 174.495 44.2803 174.5 44.5391C174.504 44.793 174.509 45.0444 174.514 45.2935C174.524 45.5376 174.531 45.7451 174.536 45.916C174.546 46.2236 174.556 46.502 174.565 46.751C174.575 46.9951 174.587 47.1929 174.602 47.3442L173.027 47.542L172.881 43.4331C172.871 43.1548 172.861 42.8569 172.852 42.5396C172.842 42.2173 172.832 41.9146 172.822 41.6313C172.812 41.3433 172.805 41.1162 172.8 40.9502C172.781 40.2617 172.766 39.7441 172.756 39.3975L174.426 39.3682C174.431 39.5195 174.434 39.6709 174.434 39.8223C174.434 39.9688 174.436 40.1201 174.441 40.2764C174.441 40.4326 174.441 40.584 174.441 40.7305C174.441 40.8721 174.443 41.0063 174.448 41.1333C174.453 41.2847 174.456 41.436 174.456 41.5874C174.456 41.7339 174.456 41.8779 174.456 42.0195C174.597 41.7949 174.771 41.5483 174.976 41.2798C175.181 41.0112 175.41 40.7573 175.664 40.5181C175.923 40.2788 176.204 40.0713 176.506 39.8955C176.809 39.7148 177.134 39.6025 177.48 39.5586C177.861 39.5391 178.218 39.6221 178.55 39.8076C178.687 39.8857 178.821 39.9907 178.953 40.1226C179.089 40.2495 179.216 40.4131 179.333 40.6133C179.446 40.8184 179.541 41.0625 179.619 41.3457C179.697 41.624 179.751 41.9536 179.78 42.3345ZM183.003 37.2368C183.003 37.52 182.903 37.7642 182.703 37.9692C182.502 38.1694 182.258 38.2695 181.97 38.2695C181.687 38.2695 181.44 38.1694 181.23 37.9692C181.021 37.7642 180.916 37.52 180.916 37.2368C180.916 36.9487 181.021 36.7021 181.23 36.4971C181.44 36.2871 181.687 36.1821 181.97 36.1821C182.258 36.1821 182.502 36.2871 182.703 36.4971C182.903 36.7021 183.003 36.9487 183.003 37.2368ZM181.084 39.7856L182.6 39.8442C182.59 40.5962 182.581 41.2798 182.571 41.895C182.566 42.5054 182.563 43.0571 182.563 43.5503C182.563 43.8042 182.561 44.0825 182.556 44.3853C182.551 44.6831 182.546 44.9663 182.542 45.2349C182.542 45.4985 182.542 45.7085 182.542 45.8647C182.537 46.1968 182.534 46.4897 182.534 46.7437C182.534 46.9976 182.534 47.2124 182.534 47.3882C182.529 47.5151 182.522 47.647 182.512 47.7837C182.507 47.9253 182.495 48.0718 182.476 48.2231C182.441 48.5161 182.371 48.8066 182.263 49.0947C182.161 49.3877 182.021 49.6685 181.846 49.937C181.665 50.2056 181.431 50.4424 181.143 50.6475C180.854 50.8525 180.505 51.0137 180.095 51.1309C179.69 51.2529 179.209 51.3115 178.652 51.3066L178.74 49.6514C179.248 49.7051 179.663 49.627 179.985 49.417C180.308 49.207 180.552 48.9312 180.718 48.5894C180.889 48.2378 180.991 47.8276 181.025 47.3589C181.03 47.1001 181.035 46.8145 181.04 46.502C181.045 46.1846 181.05 45.8403 181.055 45.4692C181.064 44.8345 181.072 44.0459 181.077 43.1035C181.082 42.1611 181.084 41.0552 181.084 39.7856ZM192.063 47.498L190.393 47.5273L190.364 45.4253C190.203 45.7134 190.02 45.9868 189.814 46.2456C189.609 46.4995 189.387 46.7217 189.148 46.9121C188.909 47.1074 188.652 47.2612 188.379 47.3735C188.11 47.4858 187.827 47.5371 187.529 47.5273C187.085 47.5127 186.709 47.4297 186.401 47.2783C186.089 47.127 185.823 46.9243 185.603 46.6704C185.388 46.4165 185.217 46.126 185.09 45.7988C184.954 45.457 184.854 45.1104 184.79 44.7588C184.722 44.3926 184.675 44.019 184.651 43.6382C184.631 43.2524 184.622 42.8789 184.622 42.5176C184.622 42.0098 184.644 41.4971 184.688 40.9795C184.731 40.457 184.795 39.9248 184.878 39.3828L186.379 39.4268C186.301 40.0322 186.248 40.5767 186.218 41.0601C186.194 41.5435 186.182 41.9683 186.182 42.3345C186.182 42.4175 186.182 42.5127 186.182 42.6201C186.182 42.7227 186.184 42.8374 186.189 42.9644C186.194 43.2183 186.211 43.4893 186.24 43.7773C186.274 44.0605 186.326 44.3413 186.394 44.6196C186.458 44.8882 186.555 45.1348 186.687 45.3594C186.814 45.5791 186.97 45.7476 187.156 45.8647C187.346 45.9819 187.581 46.021 187.859 45.9819C188.23 45.9331 188.623 45.6743 189.038 45.2056C189.448 44.7368 189.875 44.0239 190.32 43.0669L190.283 41.2065C190.278 40.9771 190.273 40.7744 190.269 40.5986C190.264 40.418 190.259 40.2666 190.254 40.1445C190.244 39.8516 190.237 39.6514 190.232 39.5439L191.807 39.3682L191.887 41.6387C191.897 41.9805 191.907 42.3027 191.917 42.6055C191.926 42.9082 191.936 43.1938 191.946 43.4624C191.956 43.7358 191.965 44.0361 191.975 44.3633C191.985 44.6855 191.995 44.9883 192.004 45.2715C192.014 45.5547 192.021 45.7793 192.026 45.9453C192.036 46.292 192.043 46.5947 192.048 46.8535C192.053 47.1123 192.058 47.3271 192.063 47.498ZM195.798 39.7563L195.857 36.5483L197.314 36.4531L197.263 39.7271L200.105 39.6318L199.995 41.0015L197.249 41.0747L197.19 47.4614L195.645 47.498L195.769 41.1187L193.235 41.1772L193.264 39.8296L195.798 39.7563ZM208.389 47.7031L206.953 47.4614L207.056 46.4287C206.46 46.8096 205.874 47.0854 205.298 47.2563C204.727 47.4272 204.192 47.5127 203.694 47.5127C203.342 47.5127 203 47.4663 202.668 47.3735C202.341 47.2856 202.053 47.1465 201.804 46.9561C201.55 46.7705 201.345 46.5337 201.189 46.2456C201.038 45.9526 200.962 45.6084 200.962 45.2129C200.962 44.8174 201.021 44.4634 201.138 44.1509C201.255 43.8384 201.416 43.5625 201.621 43.3232C201.826 43.084 202.068 42.8789 202.346 42.708C202.625 42.5371 202.925 42.3979 203.247 42.2905C203.564 42.1831 203.899 42.105 204.25 42.0562C204.602 42.0024 204.951 41.9756 205.298 41.9756C205.62 41.9756 205.92 41.9878 206.199 42.0122C206.477 42.0366 206.724 42.0684 206.938 42.1074C206.851 41.7607 206.731 41.436 206.58 41.1333C206.433 40.8306 206.238 40.5864 205.994 40.4009C205.754 40.2104 205.444 40.1152 205.063 40.1152C204.873 40.1152 204.656 40.1445 204.412 40.2031C204.167 40.2568 203.899 40.3569 203.606 40.5034C203.313 40.6499 202.993 40.8525 202.646 41.1113C202.3 41.3652 201.929 41.6924 201.533 42.0928L200.647 41.0161C201.116 40.5767 201.565 40.2178 201.995 39.9395C202.424 39.6611 202.83 39.4414 203.21 39.2803C203.586 39.124 203.936 39.0166 204.258 38.958C204.585 38.8994 204.878 38.8701 205.137 38.8701C205.591 38.8701 205.991 38.9458 206.338 39.0972C206.689 39.2485 207 39.4585 207.268 39.7271C207.537 39.9907 207.761 40.3032 207.942 40.6646C208.118 41.0112 208.267 41.397 208.389 41.8218C208.506 42.2368 208.589 42.6665 208.638 43.1108C208.691 43.5552 208.718 43.9971 208.718 44.4365C208.718 44.9053 208.691 45.4082 208.638 45.9453C208.584 46.4824 208.501 47.0684 208.389 47.7031ZM207.158 44.7954C207.168 44.5513 207.175 44.3096 207.18 44.0703C207.185 43.8311 207.173 43.582 207.144 43.3232C206.904 43.25 206.653 43.1914 206.389 43.1475C206.125 43.1035 205.862 43.0815 205.598 43.0815C205.159 43.0815 204.731 43.1328 204.316 43.2354C203.906 43.3379 203.552 43.4868 203.254 43.6821C202.957 43.8774 202.732 44.1167 202.581 44.3999C202.434 44.6831 202.405 45.0054 202.493 45.3667C202.561 45.6597 202.693 45.8647 202.888 45.9819C203.088 46.0991 203.328 46.1577 203.606 46.1577C203.967 46.1577 204.373 46.082 204.822 45.9307C205.271 45.7744 205.703 45.5889 206.118 45.374C206.538 45.1592 206.885 44.9663 207.158 44.7954ZM225.146 40.4155C225.122 40.8892 225.029 41.3042 224.868 41.6606C224.702 42.0317 224.48 42.3589 224.202 42.6421C223.923 42.9253 223.604 43.167 223.242 43.3672C222.871 43.5723 222.488 43.7358 222.092 43.8579C221.682 43.9897 221.26 44.0874 220.825 44.1509C220.391 44.2095 219.966 44.2388 219.551 44.2388C219.277 44.2388 218.972 44.229 218.635 44.2095C218.298 44.1899 217.937 44.146 217.551 44.0776L217.581 47.0146L216.035 47.0732V36.7095C216.553 36.5386 217.048 36.4092 217.522 36.3213C218 36.2334 218.423 36.1675 218.789 36.1235C219.224 36.0698 219.626 36.0405 219.998 36.0356C220.33 36.0356 220.681 36.0601 221.052 36.1089C221.433 36.1577 221.819 36.248 222.209 36.3799C222.6 36.5068 222.979 36.6777 223.345 36.8926C223.706 37.1074 224.026 37.376 224.304 37.6982C224.578 38.0254 224.792 38.4136 224.949 38.8628C225.105 39.3071 225.171 39.8247 225.146 40.4155ZM219.998 37.6543C219.861 37.6543 219.722 37.6567 219.58 37.6616C219.438 37.6665 219.297 37.6738 219.155 37.6836C218.906 37.7031 218.638 37.7397 218.35 37.7935C218.062 37.8423 217.781 37.9155 217.507 38.0132L217.537 42.5762C217.839 42.6348 218.137 42.6738 218.43 42.6934C218.728 42.7129 219.006 42.7227 219.265 42.7227C219.548 42.7227 219.846 42.708 220.159 42.6787C220.476 42.6543 220.791 42.6079 221.104 42.5396C221.416 42.4663 221.716 42.3662 222.004 42.2393C222.283 42.1172 222.537 41.9536 222.766 41.7485C222.986 41.5483 223.162 41.3115 223.293 41.0381C223.425 40.7598 223.491 40.4326 223.491 40.0566C223.491 39.3145 223.176 38.731 222.546 38.3062C221.917 37.896 221.067 37.6787 219.998 37.6543ZM233.54 42.3345L232.097 42.8765C232.092 42.4614 232.034 42.1245 231.921 41.8657C231.814 41.6069 231.67 41.4116 231.489 41.2798C231.318 41.1528 231.125 41.0942 230.911 41.104C230.769 41.1284 230.625 41.1846 230.479 41.2725C230.327 41.3652 230.168 41.4873 230.002 41.6387C229.841 41.79 229.68 41.9585 229.519 42.144C229.436 42.2368 229.355 42.332 229.277 42.4297C229.199 42.5273 229.121 42.625 229.043 42.7227C228.892 42.918 228.748 43.1157 228.611 43.3159C228.474 43.5112 228.352 43.6895 228.245 43.8506C228.25 44.0508 228.254 44.2803 228.259 44.5391C228.264 44.793 228.269 45.0444 228.274 45.2935C228.284 45.5376 228.291 45.7451 228.296 45.916C228.306 46.2236 228.315 46.502 228.325 46.751C228.335 46.9951 228.347 47.1929 228.362 47.3442L226.787 47.542L226.641 43.4331C226.631 43.1548 226.621 42.8569 226.611 42.5396C226.602 42.2173 226.592 41.9146 226.582 41.6313C226.572 41.3433 226.565 41.1162 226.56 40.9502C226.541 40.2617 226.526 39.7441 226.516 39.3975L228.186 39.3682C228.191 39.5195 228.193 39.6709 228.193 39.8223C228.193 39.9688 228.196 40.1201 228.201 40.2764C228.201 40.4326 228.201 40.584 228.201 40.7305C228.201 40.8721 228.203 41.0063 228.208 41.1333C228.213 41.2847 228.215 41.436 228.215 41.5874C228.215 41.7339 228.215 41.8779 228.215 42.0195C228.357 41.7949 228.53 41.5483 228.735 41.2798C228.94 41.0112 229.17 40.7573 229.424 40.5181C229.683 40.2788 229.963 40.0713 230.266 39.8955C230.569 39.7148 230.894 39.6025 231.24 39.5586C231.621 39.5391 231.978 39.6221 232.31 39.8076C232.446 39.8857 232.581 39.9907 232.712 40.1226C232.849 40.2495 232.976 40.4131 233.093 40.6133C233.206 40.8184 233.301 41.0625 233.379 41.3457C233.457 41.624 233.511 41.9536 233.54 42.3345ZM238.264 46.3262C238.806 46.3262 239.304 46.165 239.758 45.8428C240.212 45.5156 240.508 45.0615 240.645 44.4805L242.058 44.7661C241.921 45.2104 241.729 45.6133 241.479 45.9746C241.23 46.3359 240.94 46.646 240.608 46.9048C240.276 47.1636 239.91 47.3638 239.509 47.5054C239.114 47.647 238.699 47.7178 238.264 47.7178C237.62 47.7178 237.048 47.6201 236.55 47.4248C236.052 47.2295 235.632 46.9536 235.291 46.5972C234.592 45.8696 234.243 44.8784 234.243 43.6235C234.243 43.0132 234.346 42.4443 234.551 41.917C234.761 41.3848 235.046 40.9233 235.408 40.5327C235.769 40.1421 236.194 39.8345 236.682 39.6099C237.17 39.3853 237.698 39.2729 238.264 39.2729C238.772 39.2729 239.25 39.373 239.7 39.5732C240.149 39.7686 240.547 40.0396 240.894 40.3862C241.24 40.7378 241.526 41.1504 241.75 41.624C241.975 42.0977 242.117 42.6104 242.175 43.1621L235.833 44.1069C235.867 44.4536 235.952 44.7661 236.089 45.0444C236.23 45.3179 236.406 45.5498 236.616 45.7402C237.051 46.1309 237.6 46.3262 238.264 46.3262ZM235.876 42.752L240.286 42.2173L240.242 42.0781C240.056 41.5947 239.8 41.2163 239.473 40.9429C239.15 40.6694 238.748 40.5327 238.264 40.5327C238.059 40.5327 237.834 40.5693 237.59 40.6426C237.346 40.7109 237.109 40.8306 236.88 41.0015C236.65 41.1724 236.443 41.4019 236.257 41.6899C236.077 41.9731 235.95 42.3271 235.876 42.752ZM250.378 45.396C250.378 45.8599 250.286 46.2505 250.1 46.5679C249.915 46.8804 249.663 47.1367 249.346 47.3369C249.033 47.5322 248.672 47.6763 248.262 47.769C247.852 47.8667 247.427 47.9253 246.987 47.9448C246.528 47.9351 246.074 47.8887 245.625 47.8057C245.229 47.7373 244.792 47.6104 244.314 47.4248C243.835 47.2393 243.406 46.9976 243.025 46.6997L243.735 45.5864C244.004 45.728 244.277 45.8647 244.556 45.9966C244.839 46.1284 245.127 46.2432 245.42 46.3408C245.713 46.4434 246.013 46.5239 246.321 46.5825C246.628 46.6411 246.946 46.6704 247.273 46.6704C247.737 46.6704 248.093 46.5947 248.342 46.4434C248.591 46.2871 248.755 46.0967 248.833 45.8721C248.921 45.5791 248.835 45.2983 248.577 45.0298C248.528 44.981 248.472 44.937 248.408 44.8979C248.345 44.854 248.274 44.8125 248.196 44.7734C248.04 44.7002 247.849 44.6392 247.625 44.5903C247.4 44.5415 247.134 44.5098 246.826 44.4951C246.387 44.4756 245.962 44.4316 245.552 44.3633C245.146 44.29 244.785 44.1777 244.468 44.0264C244.146 43.875 243.879 43.6772 243.669 43.4331C243.464 43.1841 243.34 42.874 243.296 42.5029C243.262 42.166 243.286 41.8438 243.369 41.5361C243.525 40.9746 243.848 40.5132 244.336 40.1519C244.458 40.0688 244.583 39.9907 244.709 39.9175C244.841 39.8442 244.978 39.7783 245.12 39.7197C245.403 39.6074 245.701 39.5244 246.013 39.4707C246.331 39.4121 246.65 39.3828 246.973 39.3828C247.163 39.3828 247.388 39.3926 247.646 39.4121C247.905 39.4316 248.176 39.4707 248.459 39.5293C248.743 39.5879 249.028 39.6733 249.316 39.7856C249.604 39.8931 249.873 40.0371 250.122 40.2178L249.617 41.5581C249.294 41.3872 248.987 41.2554 248.694 41.1626C248.406 41.0649 248.149 40.9893 247.925 40.9355C247.793 40.9062 247.664 40.8818 247.537 40.8623C247.415 40.8428 247.297 40.8281 247.185 40.8184C246.418 40.7744 245.82 40.855 245.391 41.0601C244.966 41.2651 244.753 41.5752 244.753 41.9902C244.753 42.2832 244.834 42.498 244.995 42.6348C245.156 42.7666 245.376 42.8618 245.654 42.9204C245.815 42.9546 246.021 42.9839 246.27 43.0083C246.523 43.0278 246.787 43.0498 247.061 43.0742C247.339 43.0986 247.59 43.1279 247.815 43.1621C248.293 43.2354 248.696 43.3452 249.023 43.4917C249.351 43.6382 249.614 43.8091 249.814 44.0044C250.015 44.1997 250.159 44.417 250.247 44.6562C250.334 44.8906 250.378 45.1372 250.378 45.396ZM253.63 39.7563L253.689 36.5483L255.146 36.4531L255.095 39.7271L257.937 39.6318L257.827 41.0015L255.081 41.0747L255.022 47.4614L253.477 47.498L253.601 41.1187L251.067 41.1772L251.096 39.8296L253.63 39.7563ZM266.221 47.7031L264.785 47.4614L264.888 46.4287C264.292 46.8096 263.706 47.0854 263.13 47.2563C262.559 47.4272 262.024 47.5127 261.526 47.5127C261.174 47.5127 260.833 47.4663 260.5 47.3735C260.173 47.2856 259.885 47.1465 259.636 46.9561C259.382 46.7705 259.177 46.5337 259.021 46.2456C258.87 45.9526 258.794 45.6084 258.794 45.2129C258.794 44.8174 258.853 44.4634 258.97 44.1509C259.087 43.8384 259.248 43.5625 259.453 43.3232C259.658 43.084 259.9 42.8789 260.178 42.708C260.457 42.5371 260.757 42.3979 261.079 42.2905C261.396 42.1831 261.731 42.105 262.083 42.0562C262.434 42.0024 262.783 41.9756 263.13 41.9756C263.452 41.9756 263.752 41.9878 264.031 42.0122C264.309 42.0366 264.556 42.0684 264.771 42.1074C264.683 41.7607 264.563 41.436 264.412 41.1333C264.265 40.8306 264.07 40.5864 263.826 40.4009C263.586 40.2104 263.276 40.1152 262.896 40.1152C262.705 40.1152 262.488 40.1445 262.244 40.2031C262 40.2568 261.731 40.3569 261.438 40.5034C261.145 40.6499 260.825 40.8525 260.479 41.1113C260.132 41.3652 259.761 41.6924 259.365 42.0928L258.479 41.0161C258.948 40.5767 259.397 40.2178 259.827 39.9395C260.256 39.6611 260.662 39.4414 261.042 39.2803C261.418 39.124 261.768 39.0166 262.09 38.958C262.417 38.8994 262.71 38.8701 262.969 38.8701C263.423 38.8701 263.823 38.9458 264.17 39.0972C264.521 39.2485 264.832 39.4585 265.1 39.7271C265.369 39.9907 265.593 40.3032 265.774 40.6646C265.95 41.0112 266.099 41.397 266.221 41.8218C266.338 42.2368 266.421 42.6665 266.47 43.1108C266.523 43.5552 266.55 43.9971 266.55 44.4365C266.55 44.9053 266.523 45.4082 266.47 45.9453C266.416 46.4824 266.333 47.0684 266.221 47.7031ZM264.99 44.7954C265 44.5513 265.007 44.3096 265.012 44.0703C265.017 43.8311 265.005 43.582 264.976 43.3232C264.736 43.25 264.485 43.1914 264.221 43.1475C263.958 43.1035 263.694 43.0815 263.43 43.0815C262.991 43.0815 262.563 43.1328 262.148 43.2354C261.738 43.3379 261.384 43.4868 261.086 43.6821C260.789 43.8774 260.564 44.1167 260.413 44.3999C260.266 44.6831 260.237 45.0054 260.325 45.3667C260.393 45.6597 260.525 45.8647 260.72 45.9819C260.92 46.0991 261.16 46.1577 261.438 46.1577C261.799 46.1577 262.205 46.082 262.654 45.9307C263.103 45.7744 263.535 45.5889 263.95 45.374C264.37 45.1592 264.717 44.9663 264.99 44.7954ZM275.178 45.396C275.178 45.8599 275.085 46.2505 274.9 46.5679C274.714 46.8804 274.463 47.1367 274.146 47.3369C273.833 47.5322 273.472 47.6763 273.062 47.769C272.651 47.8667 272.227 47.9253 271.787 47.9448C271.328 47.9351 270.874 47.8887 270.425 47.8057C270.029 47.7373 269.592 47.6104 269.114 47.4248C268.635 47.2393 268.206 46.9976 267.825 46.6997L268.535 45.5864C268.804 45.728 269.077 45.8647 269.355 45.9966C269.639 46.1284 269.927 46.2432 270.22 46.3408C270.513 46.4434 270.813 46.5239 271.121 46.5825C271.428 46.6411 271.746 46.6704 272.073 46.6704C272.537 46.6704 272.893 46.5947 273.142 46.4434C273.391 46.2871 273.555 46.0967 273.633 45.8721C273.721 45.5791 273.635 45.2983 273.376 45.0298C273.328 44.981 273.271 44.937 273.208 44.8979C273.145 44.854 273.074 44.8125 272.996 44.7734C272.839 44.7002 272.649 44.6392 272.424 44.5903C272.2 44.5415 271.934 44.5098 271.626 44.4951C271.187 44.4756 270.762 44.4316 270.352 44.3633C269.946 44.29 269.585 44.1777 269.268 44.0264C268.945 43.875 268.679 43.6772 268.469 43.4331C268.264 43.1841 268.14 42.874 268.096 42.5029C268.062 42.166 268.086 41.8438 268.169 41.5361C268.325 40.9746 268.647 40.5132 269.136 40.1519C269.258 40.0688 269.382 39.9907 269.509 39.9175C269.641 39.8442 269.778 39.7783 269.919 39.7197C270.203 39.6074 270.5 39.5244 270.813 39.4707C271.13 39.4121 271.45 39.3828 271.772 39.3828C271.963 39.3828 272.188 39.3926 272.446 39.4121C272.705 39.4316 272.976 39.4707 273.259 39.5293C273.542 39.5879 273.828 39.6733 274.116 39.7856C274.404 39.8931 274.673 40.0371 274.922 40.2178L274.417 41.5581C274.094 41.3872 273.787 41.2554 273.494 41.1626C273.206 41.0649 272.949 40.9893 272.725 40.9355C272.593 40.9062 272.463 40.8818 272.336 40.8623C272.214 40.8428 272.097 40.8281 271.985 40.8184C271.218 40.7744 270.62 40.855 270.19 41.0601C269.766 41.2651 269.553 41.5752 269.553 41.9902C269.553 42.2832 269.634 42.498 269.795 42.6348C269.956 42.7666 270.176 42.8618 270.454 42.9204C270.615 42.9546 270.82 42.9839 271.069 43.0083C271.323 43.0278 271.587 43.0498 271.86 43.0742C272.139 43.0986 272.39 43.1279 272.615 43.1621C273.093 43.2354 273.496 43.3452 273.823 43.4917C274.15 43.6382 274.414 43.8091 274.614 44.0044C274.814 44.1997 274.958 44.417 275.046 44.6562C275.134 44.8906 275.178 45.1372 275.178 45.396ZM278.745 37.2368C278.745 37.52 278.64 37.7642 278.43 37.9692C278.225 38.1694 277.979 38.2695 277.69 38.2695C277.407 38.2695 277.163 38.1694 276.958 37.9692C276.758 37.7642 276.658 37.52 276.658 37.2368C276.658 36.9487 276.758 36.7021 276.958 36.4971C277.163 36.2871 277.407 36.1821 277.69 36.1821C277.979 36.1821 278.225 36.2871 278.43 36.4971C278.64 36.7021 278.745 36.9487 278.745 37.2368ZM276.885 39.8735L278.401 39.8149L278.328 43.3306C278.303 44.2974 278.289 45.0566 278.284 45.6084C278.269 46.2822 278.262 46.812 278.262 47.1978H276.76C276.765 46.9341 276.77 46.646 276.775 46.3335C276.785 46.0161 276.792 45.6768 276.797 45.3154C276.807 44.6855 276.821 43.9214 276.841 43.0229L276.885 39.8735Z" fill="#4E0E6A"/>
</svg>
