<svg width="48" height="48" viewBox="0 0 48 48" fill="none" xmlns="http://www.w3.org/2000/svg">
<circle cx="24" cy="24" r="24" fill="#FFFBFB"/>
<path d="M34.8732 23.895C36.2382 22.53 35.7949 21.1533 33.8932 20.8267L30.9182 20.3367C30.4166 20.255 29.8216 19.8117 29.5999 19.3567L27.9549 16.0667C27.0683 14.2817 25.6099 14.2817 24.7232 16.0667L23.0782 19.3567C22.8566 19.8117 22.2616 20.2433 21.7599 20.3367L18.7849 20.8267C16.8832 21.1417 16.4399 22.5183 17.8049 23.895L20.1266 26.2167C20.5116 26.6017 20.7332 27.36 20.6049 27.9083L19.9399 30.7783C19.4149 33.0417 20.6282 33.9283 22.6232 32.7383L25.4116 31.0817C25.9132 30.7783 26.7532 30.7783 27.2549 31.0817L30.0432 32.7383C32.0382 33.9167 33.2516 33.0417 32.7266 30.7783L32.0616 27.9083" fill="#15FF00"/>
<path d="M34.8732 23.895C36.2382 22.53 35.7949 21.1533 33.8932 20.8267L30.9182 20.3367C30.4166 20.255 29.8216 19.8117 29.5999 19.3567L27.9549 16.0667C27.0683 14.2817 25.6099 14.2817 24.7232 16.0667L23.0782 19.3567C22.8566 19.8117 22.2616 20.2433 21.7599 20.3367L18.7849 20.8267C16.8832 21.1417 16.4399 22.5183 17.8049 23.895L20.1266 26.2167C20.5116 26.6017 20.7332 27.36 20.6049 27.9083L19.9399 30.7783C19.4149 33.0417 20.6282 33.9283 22.6232 32.7383L25.4116 31.0817C25.9132 30.7783 26.7532 30.7783 27.2549 31.0817L30.0432 32.7383C32.0382 33.9167 33.2516 33.0417 32.7266 30.7783L32.0616 27.9083" stroke="#15FF00" stroke-width="1.5" stroke-linecap="round" stroke-linejoin="round"/>
<path d="M19.3333 15.8333H12.3333" stroke="#15FF00" stroke-width="1.5" stroke-linecap="round" stroke-linejoin="round"/>
<path d="M15.8333 32.1667H12.3333" stroke="#15FF00" stroke-width="1.5" stroke-linecap="round" stroke-linejoin="round"/>
<path d="M13.4999 24H12.3333" stroke="#15FF00" stroke-width="1.5" stroke-linecap="round" stroke-linejoin="round"/>
</svg>
