<svg width="68" height="68" viewBox="0 0 68 68" fill="none" xmlns="http://www.w3.org/2000/svg">
<g filter="url(#filter0_d_3447_221)">
<circle cx="34" cy="29" r="24" fill="white"/>
<rect width="30" height="30" transform="translate(19 14)" fill="white"/>
<path d="M34 29C37.4518 29 40.25 26.2018 40.25 22.75C40.25 19.2982 37.4518 16.5 34 16.5C30.5482 16.5 27.75 19.2982 27.75 22.75C27.75 26.2018 30.5482 29 34 29Z" fill="#00B7FF"/>
<path d="M34 32.125C27.7375 32.125 22.6375 36.325 22.6375 41.5C22.6375 41.85 22.9125 42.125 23.2625 42.125H44.7375C45.0875 42.125 45.3625 41.85 45.3625 41.5C45.3625 36.325 40.2625 32.125 34 32.125Z" fill="#00B7FF"/>
</g>
<defs>
<filter id="filter0_d_3447_221" x="0" y="0" width="68" height="68" filterUnits="userSpaceOnUse" color-interpolation-filters="sRGB">
<feFlood flood-opacity="0" result="BackgroundImageFix"/>
<feColorMatrix in="SourceAlpha" type="matrix" values="0 0 0 0 0 0 0 0 0 0 0 0 0 0 0 0 0 0 127 0" result="hardAlpha"/>
<feOffset dy="5"/>
<feGaussianBlur stdDeviation="5"/>
<feComposite in2="hardAlpha" operator="out"/>
<feColorMatrix type="matrix" values="0 0 0 0 0 0 0 0 0 0 0 0 0 0 0 0 0 0 0.12 0"/>
<feBlend mode="normal" in2="BackgroundImageFix" result="effect1_dropShadow_3447_221"/>
<feBlend mode="normal" in="SourceGraphic" in2="effect1_dropShadow_3447_221" result="shape"/>
</filter>
</defs>
</svg>
