<svg width="71" height="50" viewBox="0 0 71 50" fill="none" xmlns="http://www.w3.org/2000/svg">
<g opacity="0.57">
<path d="M2.46647 0.601524C7.76233 8.85683 14.6677 16.0737 22.6634 21.785C30.7111 27.5481 39.7971 31.8575 49.3504 34.3496C54.6982 35.7515 60.2017 36.5822 65.7053 36.738C67.3667 36.7899 67.3667 39.3859 65.7053 39.334C55.477 38.9705 45.4045 36.5303 36.0069 32.4286C26.7132 28.3269 18.1464 22.4599 10.9295 15.2949C6.87969 11.2452 3.2972 6.78001 0.181986 1.95144C-0.648737 0.497669 1.58383 -0.800323 2.46647 0.601524Z" fill="#7A1CAC"/>
<path d="M47.8448 46.447C55.3732 45.4606 62.642 42.2934 68.509 37.4129C68.7167 38.1398 68.8725 38.8667 69.0801 39.5936C62.9016 37.4648 57.0347 34.4535 51.7907 30.6114C51.2196 30.196 50.96 29.4691 51.3234 28.8461C51.635 28.275 52.5176 27.9634 53.0887 28.3788C58.1769 32.0651 63.7843 35.0246 69.7551 37.1014C70.5858 37.4129 71.157 38.6071 70.3262 39.282C63.8881 44.5779 56.1001 47.9527 47.7929 49.043C47.1179 49.1469 46.4949 48.3681 46.4949 47.745C46.5468 46.9662 47.1179 46.5509 47.8448 46.447Z" fill="#7A1CAC"/>
</g>
</svg>
